<svg width="32" height="32" viewBox="0 0 32 32" fill="none" xmlns="http://www.w3.org/2000/svg">
<path d="M23.5714 5.51071V2.75C23.5714 2.51071 23.2964 2.37857 23.1107 2.525L7.01071 15.1C6.87392 15.2064 6.76323 15.3426 6.6871 15.4983C6.61096 15.6539 6.57138 15.8249 6.57138 15.9982C6.57138 16.1715 6.61096 16.3425 6.6871 16.4982C6.76323 16.6538 6.87392 16.79 7.01071 16.8964L23.1107 29.4714C23.3 29.6179 23.5714 29.4857 23.5714 29.2464V26.4857C23.5714 26.3107 23.4893 26.1429 23.3536 26.0357L10.4964 16L23.3536 5.96071C23.4893 5.85357 23.5714 5.68571 23.5714 5.51071V5.51071Z" fill="black"/>
</svg>
