<svg width="13" height="7" viewBox="0 0 13 7" fill="none" xmlns="http://www.w3.org/2000/svg">
<g clip-path="url(#clip0_6_32)">
<path fill-rule="evenodd" clip-rule="evenodd" d="M6.50001 7C6.25639 7.0015 6.02139 6.90993 5.84301 6.744L0.273013 1.494C0.18726 1.4154 0.118789 1.31983 0.0719466 1.21335C0.0251046 1.10688 0.000915527 0.991824 0.000915527 0.8755C0.000915527 0.759175 0.0251046 0.644122 0.0719466 0.537646C0.118789 0.43117 0.18726 0.335598 0.273013 0.256999C0.451759 0.0922707 0.685937 0.000819697 0.929013 0.000819697C1.17209 0.000819697 1.40627 0.0922707 1.58501 0.256999L6.50001 4.888L11.415 0.256999C11.5938 0.0919859 11.8282 0.000358582 12.0715 0.000358582C12.3148 0.000358582 12.5492 0.0919859 12.728 0.256999C12.8138 0.335598 12.8822 0.43117 12.9291 0.537646C12.9759 0.644122 13.0001 0.759175 13.0001 0.8755C13.0001 0.991824 12.9759 1.10688 12.9291 1.21335C12.8822 1.31983 12.8138 1.4154 12.728 1.494L7.15601 6.744C6.97788 6.90969 6.74329 7.00124 6.50001 7V7Z" fill="black"/>
</g>
<defs>
<clipPath id="clip0_6_32">
<rect width="13" height="7" fill="white"/>
</clipPath>
</defs>
</svg>
