<svg width="40" height="41" viewBox="0 0 40 41" fill="none" xmlns="http://www.w3.org/2000/svg">
<mask id="mask0_5_61" style="mask-type:alpha" maskUnits="userSpaceOnUse" x="0" y="0" width="40" height="41">
<rect y="0.5" width="40" height="40" fill="#D9D9D9"/>
</mask>
<g mask="url(#mask0_5_61)">
<path d="M20 35.5C17.9167 35.5 15.9723 35.104 14.167 34.312C12.361 33.5207 10.7777 32.4443 9.417 31.083C8.05567 29.7223 6.97933 28.139 6.188 26.333C5.396 24.5277 5 22.5833 5 20.5C5 19.3053 5.139 18.1457 5.417 17.021C5.69433 15.8957 6.097 14.8263 6.625 13.813C7.153 12.799 7.785 11.8543 8.521 10.979C9.257 10.1043 10.0973 9.31967 11.042 8.625L22.25 19.875L20.292 21.833L10.917 12.458C9.917 13.5693 9.146 14.8057 8.604 16.167C8.06267 17.5277 7.792 18.972 7.792 20.5C7.792 23.8887 8.97933 26.7707 11.354 29.146C13.7293 31.5207 16.6113 32.708 20 32.708C23.3887 32.708 26.2707 31.5207 28.646 29.146C31.0207 26.7707 32.208 23.8887 32.208 20.5C32.208 17.3333 31.1593 14.5903 29.062 12.271C26.9653 9.95167 24.3473 8.653 21.208 8.375V12.208H18.458V5.5H19.958C22.014 5.5 23.9587 5.896 25.792 6.688C27.6253 7.47933 29.2223 8.54867 30.583 9.896C31.9443 11.2433 33.0207 12.8267 33.812 14.646C34.604 16.4653 35 18.4167 35 20.5C35 22.5833 34.604 24.5277 33.812 26.333C33.0207 28.139 31.9443 29.7223 30.583 31.083C29.2223 32.4443 27.639 33.5207 25.833 34.312C24.0277 35.104 22.0833 35.5 20 35.5ZM19.958 30.958C19.486 30.958 19.0973 30.8053 18.792 30.5C18.486 30.1947 18.333 29.8197 18.333 29.375C18.333 28.903 18.486 28.514 18.792 28.208C19.0973 27.9027 19.486 27.75 19.958 27.75C20.4027 27.75 20.7777 27.9027 21.083 28.208C21.389 28.514 21.542 28.903 21.542 29.375C21.542 29.8197 21.389 30.1947 21.083 30.5C20.7777 30.8053 20.4027 30.958 19.958 30.958ZM28.875 22.042C28.403 22.042 28.014 21.889 27.708 21.583C27.4027 21.2777 27.25 20.9027 27.25 20.458C27.25 19.986 27.4027 19.5973 27.708 19.292C28.014 18.986 28.403 18.833 28.875 18.833C29.3197 18.833 29.6947 18.986 30 19.292C30.3053 19.5973 30.458 19.986 30.458 20.458C30.458 20.9027 30.3053 21.2777 30 21.583C29.6947 21.889 29.3197 22.042 28.875 22.042ZM11.125 22.042C10.653 22.042 10.264 21.889 9.958 21.583C9.65267 21.2777 9.5 20.9027 9.5 20.458C9.5 19.986 9.65267 19.5973 9.958 19.292C10.264 18.986 10.653 18.833 11.125 18.833C11.5697 18.833 11.9447 18.986 12.25 19.292C12.5553 19.5973 12.708 19.986 12.708 20.458C12.708 20.9027 12.5553 21.2777 12.25 21.583C11.9447 21.889 11.5697 22.042 11.125 22.042Z" fill="#1C1B1F"/>
</g>
</svg>
