<svg width="40" height="41" viewBox="0 0 40 41" fill="none" xmlns="http://www.w3.org/2000/svg">
<mask id="mask0_5_91" style="mask-type:alpha" maskUnits="userSpaceOnUse" x="0" y="0" width="40" height="41">
<rect y="0.5" width="40" height="40" fill="#D9D9D9"/>
</mask>
<g mask="url(#mask0_5_91)">
<path d="M6.208 34.125C5.34733 34.125 4.60433 33.8127 3.979 33.188C3.35433 32.5627 3.042 31.8193 3.042 30.958V10.042C3.042 9.18067 3.35433 8.43733 3.979 7.812C4.60433 7.18733 5.34733 6.875 6.208 6.875H33.792C34.6527 6.875 35.3957 7.18733 36.021 7.812C36.6457 8.43733 36.958 9.18067 36.958 10.042V30.958C36.958 31.8193 36.6457 32.5627 36.021 33.188C35.3957 33.8127 34.6527 34.125 33.792 34.125H6.208ZM20 21.917L6.208 12.958V30.958H33.792V12.958L20 21.917ZM20 18.875L33.667 10.042H6.333L20 18.875ZM6.208 12.958V10.042V30.958V12.958Z" fill="#1C1B1F"/>
</g>
</svg>
