<svg width="32" height="32" viewBox="0 0 32 32" fill="none" xmlns="http://www.w3.org/2000/svg">
<path d="M25.0607 15.1L8.96071 2.525C8.91864 2.49188 8.86808 2.4713 8.81484 2.46561C8.7616 2.45993 8.70784 2.46938 8.65973 2.49288C8.61162 2.51638 8.57111 2.55297 8.54285 2.59845C8.5146 2.64393 8.49975 2.69646 8.5 2.75V5.51071C8.5 5.68571 8.58214 5.85357 8.71786 5.96071L21.575 16L8.71786 26.0393C8.57857 26.1464 8.5 26.3143 8.5 26.4893V29.25C8.5 29.4893 8.775 29.6214 8.96071 29.475L25.0607 16.9C25.1976 16.7933 25.3083 16.6567 25.3844 16.5008C25.4605 16.3448 25.5001 16.1735 25.5001 16C25.5001 15.8265 25.4605 15.6552 25.3844 15.4992C25.3083 15.3433 25.1976 15.2067 25.0607 15.1Z" fill="black"/>
</svg>
